<mxfile host="app.diagrams.net" modified="2023-09-20T10:48:20.992Z" agent="Mozilla/5.0 (Macintosh; Intel Mac OS X 10_15_7) AppleWebKit/537.36 (KHTML, like Gecko) Chrome/116.0.0.0 Safari/537.36" version="21.7.5" etag="3WoD4bGyQ4e_PeeOBfpc" type="github">
  <diagram name="第 1 页" id="zgpyEG3FFbhqY0Ks8HnK">
    <mxGraphModel>
      <root>
        <mxCell id="0" />
        <mxCell id="1" parent="0" />
      </root>
    </mxGraphModel>
  </diagram>
</mxfile>
